<svg xmlns="http://www.w3.org/2000/svg" viewBox="0 0 204.88 44"><defs><style>.cls-1{fill:#fff;}.cls-2{fill:#e3a008;}</style></defs><g id="Layer_2" data-name="Layer 2"><g id="Layer_1-2" data-name="Layer 1"><path d="M14.57,20.67H6.1A6.11,6.11,0,0,1,0,14.57V6.1A6.11,6.11,0,0,1,6.1,0h8.47a6.11,6.11,0,0,1,6.1,6.1v8.47A6.1,6.1,0,0,1,14.57,20.67ZM6.1,2.65A3.46,3.46,0,0,0,2.65,6.1v8.47A3.46,3.46,0,0,0,6.1,18h8.47A3.46,3.46,0,0,0,18,14.57V6.1a3.46,3.46,0,0,0-3.46-3.45Z"/><rect x="6.25" y="6.25" width="8.18" height="8.18" rx="1.97"/><path d="M14.57,44H6.1A6.11,6.11,0,0,1,0,37.89V29.43a6.11,6.11,0,0,1,6.1-6.11h8.47a6.11,6.11,0,0,1,6.1,6.11v8.46A6.11,6.11,0,0,1,14.57,44ZM6.1,26a3.46,3.46,0,0,0-3.45,3.46v8.46A3.46,3.46,0,0,0,6.1,41.35h8.47A3.46,3.46,0,0,0,18,37.89V29.43A3.46,3.46,0,0,0,14.57,26Z"/><rect x="6.25" y="29.57" width="8.18" height="8.18" rx="1.97"/><path d="M37.89,20.67H29.43a6.11,6.11,0,0,1-6.11-6.1V6.1A6.11,6.11,0,0,1,29.43,0h8.46A6.11,6.11,0,0,1,44,6.1v8.47A6.11,6.11,0,0,1,37.89,20.67Zm-8.46-18A3.46,3.46,0,0,0,26,6.1v8.47A3.46,3.46,0,0,0,29.43,18h8.46a3.46,3.46,0,0,0,3.46-3.46V6.1a3.46,3.46,0,0,0-3.46-3.45Z"/><rect x="29.57" y="6.25" width="8.18" height="8.18" rx="1.97"/><polyline class="cls-1" points="24.65 24.65 31.53 35.62 36.27 30.36 43.15 41.33"/><path class="cls-2" d="M24.65,24.65c.76.8,1.48,1.62,2.17,2.46s1.37,1.69,2,2.55c1.31,1.72,2.55,3.49,3.76,5.28l-2-.17c.77-.9,1.55-1.79,2.33-2.67s1.6-1.74,2.41-2.59l1.19-1.25.84,1.43c1.09,1.86,2.14,3.75,3.12,5.68.49,1,1,1.94,1.41,2.94s.88,2,1.27,3c-.76-.79-1.49-1.61-2.17-2.46s-1.37-1.68-2-2.54c-1.31-1.73-2.56-3.5-3.76-5.29l2,.18c-.77.89-1.55,1.78-2.34,2.66s-1.59,1.74-2.41,2.59l-1.19,1.25-.83-1.42c-1.09-1.87-2.14-3.76-3.12-5.69-.49-1-1-1.94-1.41-2.94S25,25.68,24.65,24.65Z"/><path d="M83.32,21.14a21.42,21.42,0,0,1-1.6,8.68,13.49,13.49,0,0,1-4.49,5.7l6.21,4.88-3.13,2.89L73,37.46a15.17,15.17,0,0,1-3.63.43,13,13,0,0,1-12.22-7.78,20.62,20.62,0,0,1-1.8-8.66V18.94a21.29,21.29,0,0,1,1.74-8.86A12.91,12.91,0,0,1,69.3,2.15a13.42,13.42,0,0,1,7.39,2A13.08,13.08,0,0,1,81.6,10a21.38,21.38,0,0,1,1.72,8.9Zm-4.59-2.25c0-4.09-.81-7.25-2.45-9.47a8.14,8.14,0,0,0-7-3.33A8.09,8.09,0,0,0,62.47,9.4c-1.66,2.2-2.52,5.26-2.56,9.18v2.56q0,6,2.49,9.41A8.09,8.09,0,0,0,69.34,34a8.11,8.11,0,0,0,6.88-3.23q2.44-3.24,2.51-9.29Z"/><path d="M105.66,34.85q-2.58,3-7.58,3a8,8,0,0,1-6.29-2.4q-2.16-2.4-2.19-7.11V11.56H94v16.7c0,3.92,1.6,5.88,4.78,5.88,3.38,0,5.62-1.26,6.74-3.78V11.56H110V37.41h-4.21Z"/><path d="M116.69,4.7a2.62,2.62,0,0,1,.66-1.81,2.45,2.45,0,0,1,2-.74,2.49,2.49,0,0,1,2,.74,2.63,2.63,0,0,1,.67,1.81,2.53,2.53,0,0,1-.67,1.79,2.55,2.55,0,0,1-2,.72,2.51,2.51,0,0,1-2-.72A2.52,2.52,0,0,1,116.69,4.7Zm4.78,32.71h-4.42V11.56h4.42Z"/><path d="M138.91,34.28a6.41,6.41,0,0,0,4.14-1.43,5.09,5.09,0,0,0,2-3.59h4.18a8,8,0,0,1-1.53,4.23,10,10,0,0,1-3.77,3.2,10.76,10.76,0,0,1-5,1.2,10.62,10.62,0,0,1-8.39-3.53q-3.12-3.53-3.12-9.64V24a15.63,15.63,0,0,1,1.38-6.71,10.56,10.56,0,0,1,4-4.56,11.25,11.25,0,0,1,6.13-1.63,10.36,10.36,0,0,1,7.23,2.61,9.29,9.29,0,0,1,3.07,6.76H145a6.11,6.11,0,0,0-1.9-4.12,5.91,5.91,0,0,0-4.22-1.62,6.17,6.17,0,0,0-5.22,2.43c-1.24,1.61-1.85,3.95-1.85,7V25c0,3,.61,5.27,1.84,6.88A6.23,6.23,0,0,0,138.91,34.28Z"/><path d="M161.37,25.44l-2.77,2.89v9.08h-4.42V.71h4.42v22.2L161,20.06l8.06-8.5h5.37l-10.06,10.8,11.23,15h-5.18Z"/><path d="M192.4,23.34h-8.17V37.41h-4.61V2.62h11.52c3.92,0,6.93.9,9,2.68s3.17,4.38,3.17,7.79a9.38,9.38,0,0,1-1.76,5.66,10.49,10.49,0,0,1-4.89,3.61l8.18,14.76v.29H200Zm-8.17-3.75h7.05a8,8,0,0,0,5.44-1.77,6,6,0,0,0,2-4.74,6.32,6.32,0,0,0-1.93-5,8.14,8.14,0,0,0-5.55-1.75h-7Z"/></g></g></svg>